<?xml version="1.0" encoding="UTF-8"?>
<svg version="1.1" xmlns="http://www.w3.org/2000/svg" width="513" height="90">
<path d="M0 0 C3.64581687 -0.02887512 7.29160463 -0.04675585 10.9375 -0.0625 C11.97841797 -0.07087891 13.01933594 -0.07925781 14.09179688 -0.08789062 C15.08115234 -0.09111328 16.07050781 -0.09433594 17.08984375 -0.09765625 C18.46450806 -0.10551147 18.46450806 -0.10551147 19.86694336 -0.11352539 C22 0 22 0 23 1 C23.1225355 2.53382679 23.17777938 4.07310519 23.20532227 5.61157227 C23.22526749 6.59251358 23.24521271 7.5734549 23.26576233 8.5841217 C23.29083107 10.18410255 23.29083107 10.18410255 23.31640625 11.81640625 C23.33718735 12.9025975 23.35796844 13.98878876 23.37937927 15.1078949 C23.44499442 18.59269627 23.50381511 22.07757568 23.5625 25.5625 C23.60567385 27.91862801 23.64928776 30.27474799 23.69335938 32.63085938 C23.80068792 38.42048937 23.90243165 44.21019775 24 50 C24.32685791 49.18015625 24.65371582 48.3603125 24.99047852 47.515625 C25.64681274 45.89914063 25.64681274 45.89914063 26.31640625 44.25 C26.74638916 43.18265625 27.17637207 42.1153125 27.61938477 41.015625 C30.80790389 34.05106476 35.97067741 29.12412678 43.0625 26.12890625 C52.92328813 22.55094667 62.37388519 22.06090312 72.30078125 25.88671875 C79.94745403 29.53004872 85.16350679 34.40396329 89 42 C91.25259549 48.725258 92.78066469 55.03921984 91 62 C89.68 62.33 88.36 62.66 87 63 C87 63.66 87 64.32 87 65 C88.32 65.33 89.64 65.66 91 66 C87.46118058 74.67810993 82.85817003 80.92846708 74.4296875 85.34765625 C65.10447406 89.14027221 55.78518378 90.36196322 46.1875 87 C40.5282912 84.55407077 36.25049664 81.42899518 32 77 C31.34 76.34 30.68 75.68 30 75 C29.67 78.63 29.34 82.26 29 86 C26.31139069 86.10887507 23.62726842 86.18770594 20.9375 86.25 C20.18533203 86.28351563 19.43316406 86.31703125 18.65820312 86.3515625 C12.93545282 86.45065774 9.74451107 85.20081225 5 82 C5 81.34 5 80.68 5 80 C4.48050781 80.40992187 3.96101563 80.81984375 3.42578125 81.2421875 C2.72839844 81.78101562 2.03101563 82.31984375 1.3125 82.875 C0.62800781 83.40867187 -0.05648438 83.94234375 -0.76171875 84.4921875 C-7.12666321 88.77991623 -13.54091618 88.71670912 -21 88 C-29.19704851 85.75340152 -34.65401844 81.24330259 -39 74 C-39.33 77.96 -39.66 81.92 -40 86 C-55.89026523 86.55217138 -55.89026523 86.55217138 -62 83 C-62.66 82.67 -63.32 82.34 -64 82 C-64 81.34 -64 80.68 -64 80 C-64.72703125 80.59748047 -64.72703125 80.59748047 -65.46875 81.20703125 C-72.41683526 86.69869095 -77.33900438 89.59003995 -86.375 88.5625 C-95.2973722 86.83792111 -101.56321208 83.41223182 -107 76.0625 C-109.54178016 72.10928426 -111.09975567 68.60124881 -112 64 C-112.66 64 -113.32 64 -114 64 C-114.185625 64.825 -114.37125 65.65 -114.5625 66.5 C-118.19760991 75.35070238 -125.675649 80.74628895 -134 85 C-146.72712696 90.3068832 -157.71827513 90.33289931 -170.515625 85.4765625 C-180.06475552 81.42995786 -188.64778907 74.66671976 -193 65 C-193.4125 66.175625 -193.825 67.35125 -194.25 68.5625 C-197.0281627 75.85517709 -200.24712698 81.68937157 -207 86 C-215.37085476 89.45445133 -225.41792478 89.42277392 -233.8125 86.0625 C-235.22212124 85.40373228 -236.62191008 84.72240924 -238 84 C-238.66 83.67 -239.32 83.34 -240 83 C-240.33 83.99 -240.66 84.98 -241 86 C-245.67723114 86.12460858 -250.35347364 86.21480623 -255.03198242 86.2746582 C-256.61971897 86.29963528 -258.20734252 86.33362981 -259.79467773 86.37719727 C-276.72417979 86.82985775 -276.72417979 86.82985775 -284 81 C-285.3303125 82.175625 -285.3303125 82.175625 -286.6875 83.375 C-292.14452707 88.19748904 -297.67233988 88.43960786 -304.7109375 88.3125 C-309.46389885 87.86091222 -312.97049034 86.50654538 -317 84 C-317.61359375 83.63390625 -318.2271875 83.2678125 -318.859375 82.890625 C-325.19288499 78.35067536 -327.89249671 70.89506808 -331 64 C-331.35191406 64.56847656 -331.70382812 65.13695313 -332.06640625 65.72265625 C-339.84481098 77.88783754 -348.35525407 84.59745442 -362.4140625 88.26953125 C-375.38956853 90.91268988 -386.73873511 87.73442457 -397.7578125 80.60546875 C-407.14578115 73.88342151 -413.92821275 62.85075922 -415.8515625 51.33203125 C-416.77837891 36.77125768 -412.59139094 24.93418567 -403 14 C-392.84838502 4.66583717 -380.53608124 1.90675489 -367 2 C-358.18507525 3.04185669 -351.20413219 5.88611784 -344 11 C-342.948125 11.721875 -341.89625 12.44375 -340.8125 13.1875 C-335.12255747 18.87744253 -330.50566064 26.3264143 -328 34 C-328.4375 36.19140625 -328.4375 36.19140625 -329 38 C-333.25135216 38.00625462 -337.49930479 37.94674169 -341.75 37.875 C-342.9565625 37.87757812 -344.163125 37.88015625 -345.40625 37.8828125 C-348.70992782 37.80939744 -351.76553485 37.68185867 -355 37 C-357.703125 34.05859375 -357.703125 34.05859375 -359 31 C-363.40899424 27.00434897 -367.93399086 26.69452366 -373.69140625 26.7890625 C-378.87687611 27.26286178 -382.14280019 29.16184907 -385.8125 32.75 C-389.62104028 38.40840271 -390.45864082 43.23776203 -389.46875 49.86328125 C-388.08960929 56.14986434 -385.05726358 59.38766887 -380 63 C-374.20642739 64.85676364 -368.23467254 64.88389961 -362.6875 62.3125 C-359.2984193 60.41919647 -357.20594705 58.22407646 -355 55 C-352.578764 52.578764 -351.98638291 52.74468688 -348.67382812 52.7253418 C-347.33233704 52.71104378 -347.33233704 52.71104378 -345.96374512 52.69645691 C-344.51216003 52.69782402 -344.51216003 52.69782402 -343.03125 52.69921875 C-342.04000122 52.69493362 -341.04875244 52.6906485 -340.02746582 52.68623352 C-337.92928838 52.68048416 -335.831091 52.6799944 -333.73291016 52.68432617 C-330.5130027 52.68748723 -327.29401257 52.6640304 -324.07421875 52.63867188 C-322.03906366 52.63639916 -320.0039061 52.63569526 -317.96875 52.63671875 C-317.00102661 52.627509 -316.03330322 52.61829926 -315.03625488 52.60881042 C-314.14192749 52.61503922 -313.2476001 52.62126801 -312.32617188 52.62768555 C-311.53722534 52.62705612 -310.74827881 52.6264267 -309.9354248 52.6257782 C-309.29673462 52.74927139 -308.65804443 52.87276459 -308 53 C-306 56 -306 56 -305.0625 59.5625 C-304.32149023 63.24149406 -304.32149023 63.24149406 -301 65 C-295.12495179 65.45331302 -295.12495179 65.45331302 -290 63 C-288.18005928 59.96676547 -287.99902889 58.05438224 -288.0625 54.5 C-289.2038678 50.23889356 -290.72933272 48.9072598 -294 46 C-295.55564398 44.17533488 -297.06752659 42.32145343 -298.5703125 40.453125 C-300.58479764 38.40561552 -302.4503601 38.02750862 -305.26831055 37.88647461 C-306.13238525 37.89171143 -306.99645996 37.89694824 -307.88671875 37.90234375 C-308.82451172 37.90556641 -309.76230469 37.90878906 -310.72851562 37.91210938 C-311.70498047 37.92048828 -312.68144531 37.92886719 -313.6875 37.9375 C-314.67556641 37.94201172 -315.66363281 37.94652344 -316.68164062 37.95117188 C-319.12115474 37.96295697 -321.56054689 37.97940989 -324 38 C-324 34 -324 34 -322.4609375 32.18359375 C-314.99301012 25.93235117 -308.94200619 22.71258326 -299 23 C-297.08932798 23.43990507 -295.19222135 23.9424772 -293.3125 24.5 C-286.86849837 26.36758272 -281.34640442 25.89485896 -274.76171875 25.2265625 C-270.98792643 24.99927283 -267.72172694 25.41389689 -264 26 C-264.0314209 27.06959961 -264.0628418 28.13919922 -264.09521484 29.24121094 C-264.20391472 33.21421112 -264.27273102 37.18708039 -264.32958984 41.16113281 C-264.35974161 42.88010771 -264.4006713 44.59892902 -264.45263672 46.31738281 C-264.52553181 48.79009864 -264.55946901 51.26077994 -264.5859375 53.734375 C-264.61690521 54.50118591 -264.64787292 55.26799683 -264.67977905 56.05804443 C-264.74643355 58.51984893 -264.74643355 58.51984893 -264 62 C-261.12590397 64.57480495 -261.12590397 64.57480495 -258 66 C-257.55084229 64.82381104 -257.10168457 63.64762207 -256.63891602 62.43579102 C-254.97738863 58.0869369 -253.31235559 53.73943222 -251.64624023 49.39233398 C-250.9245736 47.50793707 -250.20386808 45.6231718 -249.48413086 43.73803711 C-248.4515613 41.03402666 -247.41558274 38.33134437 -246.37890625 35.62890625 C-246.05596085 34.78099014 -245.73301544 33.93307404 -245.40028381 33.0594635 C-243.11387171 27.11387171 -243.11387171 27.11387171 -242 26 C-235.7046088 25.10381953 -229.35020981 24.78832634 -223 25 C-221.7625 24.979375 -220.525 24.95875 -219.25 24.9375 C-216 26 -216 26 -215.09765625 27.71875 C-214.83855469 28.4509375 -214.57945312 29.183125 -214.3125 29.9375 C-212.13715383 35.99739292 -207.49509076 39.14849751 -202.58203125 42.93359375 C-200 45 -200 45 -199 47 C-198.90203125 46.40574219 -198.8040625 45.81148437 -198.703125 45.19921875 C-196.25524165 31.63034813 -191.20081615 18.70249284 -180 10 C-172.69128388 5.45561204 -165.55630264 2.83222397 -157 2 C-156.27554687 1.9175 -155.55109375 1.835 -154.8046875 1.75 C-144.01831973 1.11316648 -132.42939215 5.41774421 -124 12 C-116.10997162 19.24992025 -111.2405013 27.31863095 -110 38 C-113.99873123 38.26342993 -117.99521814 38.42186385 -122 38.5625 C-123.12535156 38.63791016 -124.25070312 38.71332031 -125.41015625 38.79101562 C-133.73301884 39.01003832 -133.73301884 39.01003832 -137.49438477 36.01147461 C-139.62890625 33.5625 -139.62890625 33.5625 -141.42016602 31.1015625 C-143.6289608 28.16332954 -145.3947651 27.51503356 -149 27 C-155.51447268 26.25722835 -160.62483555 27.08746533 -166 31 C-169.85322524 35.36022856 -171.70347574 40.21777703 -172 46 C-171.2800734 51.03948619 -169.8488268 54.89180945 -166.75 58.9375 C-161.40072072 62.94945946 -156.69312916 64.70453991 -150 64 C-143.72652772 62.56057997 -140.75233038 60.14605309 -137 55 C-135.27445547 52.85422383 -134.47084384 52.0897497 -131.73168945 51.56762695 C-130.43557739 51.52835083 -130.43557739 51.52835083 -129.11328125 51.48828125 C-128.17548828 51.45283203 -127.23769531 51.41738281 -126.27148438 51.38085938 C-125.29501953 51.35830078 -124.31855469 51.33574219 -123.3125 51.3125 C-122.32443359 51.27833984 -121.33636719 51.24417969 -120.31835938 51.20898438 C-117.87901947 51.12649462 -115.44003937 51.05734932 -113 51 C-112.79246094 50.23816406 -112.58492188 49.47632813 -112.37109375 48.69140625 C-109.21411147 38.11089243 -104.63250539 30.48768124 -94.73828125 25.09765625 C-86.96935938 21.98343793 -79.71148502 22.51187515 -71.9609375 25.30859375 C-70.03217841 26.11084176 -70.03217841 26.11084176 -68 26 C-60.66666667 26 -53.33333333 26 -46 26 C-45.67 38.54 -45.34 51.08 -45 64 C-44.34 64 -43.68 64 -43 64 C-43.16757812 63.30261719 -43.33515625 62.60523438 -43.5078125 61.88671875 C-45.29451838 51.40754696 -42.53941168 42.5027385 -36.58203125 33.96875 C-30.97974425 26.87952891 -24.78018559 24.4409929 -16.01171875 23.17578125 C-10.60342496 22.86012208 -6.06677408 24.31107531 -1 26 C0.30475618 23.39048764 0.11301572 21.47298715 0.09765625 18.5546875 C0.09282227 16.94013672 0.09282227 16.94013672 0.08789062 15.29296875 C0.07951172 14.16503906 0.07113281 13.03710938 0.0625 11.875 C0.05573242 10.17150391 0.05573242 10.17150391 0.04882812 8.43359375 C0.03701615 5.62234362 0.02054507 2.8111977 0 0 Z M51 46 C51.33 46.99 51.66 47.98 52 49 C53.41655793 49.0272415 54.83327045 49.04650467 56.25 49.0625 C57.03890625 49.07410156 57.8278125 49.08570313 58.640625 49.09765625 C60.90691002 49.00385306 62.8288895 48.63241063 65 48 C64.34 46.68 63.68 45.36 63 44 C61.37536158 43.94604522 59.75021459 43.90722805 58.125 43.875 C57.22007812 43.85179687 56.31515625 43.82859375 55.3828125 43.8046875 C52.81193006 43.75675164 52.81193006 43.75675164 51 46 Z M-88 50 C-89.37185342 54.27695477 -89.14903671 56.52151371 -87.8125 60.8125 C-86.28566174 63.940206 -86.28566174 63.940206 -84.25 65.4375 C-80.98376521 66.2540587 -78.35661242 66.35332762 -75 66 C-71.61060444 63.86320715 -70.27417443 62.8225233 -69 59 C-68.63633777 55.07244796 -68.66130483 52.67739035 -70.4375 49.125 C-76.07989129 44.44594381 -82.79273693 44.79273693 -88 50 Z M-17 47.3125 C-19.75371452 51.01280389 -19.63258396 53.90718265 -19.43359375 58.4296875 C-19.16307855 61.1766381 -19.16307855 61.1766381 -17.125 63.625 C-13.2167224 66.15388551 -10.69956919 66.39826858 -6 66 C-3.24670979 64.20437595 -1.47372539 62.94745078 0 60 C0.53365513 54.18654053 0.53365513 54.18654053 -1.875 49.0625 C-4.81241668 46.21147793 -5.61147334 46.03184645 -9.8125 45.6875 C-12.7574071 45.76259781 -14.21994258 46.09622488 -17 47.3125 Z M-229 52 C-231.41685712 56.22949995 -232.34833144 59.12335991 -232 64 C-228.35969312 66.3297964 -225.24881273 66.3862557 -221 66 C-219.05630262 64.64570159 -219.05630262 64.64570159 -218 63 C-219.36439152 57.84563204 -222.72573615 54.93351599 -227 52 C-227.66 52 -228.32 52 -229 52 Z M24 60 C25 63 25 63 25 63 Z M50 63 C51.49214957 67.06684873 51.49214957 67.06684873 54.20703125 67.93359375 C55.49673828 68.18302734 55.49673828 68.18302734 56.8125 68.4375 C57.66457031 68.62183594 58.51664062 68.80617188 59.39453125 68.99609375 C62.08338905 69.22931004 62.08338905 69.22931004 64.30859375 67.5703125 C67.88435494 65.48401932 71.21888895 65.5136271 75.25 65.4375 C77.85951832 65.375478 80.39558069 65.23487343 83 65 C83.33 64.34 83.66 63.68 84 63 C72.78 63 61.56 63 50 63 Z " fill="#0633E5" transform="translate(417,0)"/>
<path d="M0 0 C3.30417555 1.7984753 5.47939286 4.10076949 7.375 7.375 C8.54298928 12.280555 8.66355829 16.23825251 6.3125 20.75 C3.91129768 24.12466272 2.85095328 25.57682162 -1 27 C-6.04726882 27.67635093 -9.82620111 27.57622855 -14.4375 25.3125 C-18.47803012 21.66616794 -20.15438768 19.0055627 -20.4375 13.5625 C-20.28000175 9.05505022 -18.96898798 6.46381931 -16 3 C-10.97940885 -1.41203464 -6.28544007 -1.56599702 0 0 Z M-13 9 C-14.77190909 10.35444301 -14.77190909 10.35444301 -16 12 C-15.34 13.65 -14.68 15.3 -14 17 C-13.43152344 16.91621094 -12.86304688 16.83242188 -12.27734375 16.74609375 C-7.23364455 16.08089803 -2.99705931 16.0431163 2 17 C2 14.69 2 12.38 2 10 C0.741875 10.144375 -0.51625 10.28875 -1.8125 10.4375 C-2.87404297 10.55931641 -2.87404297 10.55931641 -3.95703125 10.68359375 C-6.19396393 10.97170735 -6.19396393 10.97170735 -9 12 C-9 11.34 -9 10.68 -9 10 C-10.83700789 9.22757731 -10.83700789 9.22757731 -13 9 Z " fill="#FACA08" transform="translate(52,32)"/>
<path d="M0 0 C3.30417555 1.7984753 5.47939286 4.10076949 7.375 7.375 C8.54298928 12.280555 8.66355829 16.23825251 6.3125 20.75 C3.91129768 24.12466272 2.85095328 25.57682162 -1 27 C-6.04726882 27.67635093 -9.82620111 27.57622855 -14.4375 25.3125 C-18.47803012 21.66616794 -20.15438768 19.0055627 -20.4375 13.5625 C-20.28000175 9.05505022 -18.96898798 6.46381931 -16 3 C-10.97940885 -1.41203464 -6.28544007 -1.56599702 0 0 Z M-10 1 C-10 1.66 -10 2.32 -10 3 C-10.66 3 -11.32 3 -12 3 C-14.99720992 5.69748892 -17.67145853 8.1351521 -19 12 C-19.16750414 14.66709069 -19.16750414 14.66709069 -19 17 C-18.34 17 -17.68 17 -17 17 C-17 18.32 -17 19.64 -17 21 C-15.02 21.33 -13.04 21.66 -11 22 C-11 22.99 -11 23.98 -11 25 C-5.36999727 25.34469404 -1.85113803 24.7166373 3 22 C3.33 20.68 3.66 19.36 4 18 C-0.29 17.34 -4.58 16.68 -9 16 C-5.37 16.33 -1.74 16.66 2 17 C1.9690625 15.2984375 1.9690625 15.2984375 1.9375 13.5625 C2 10 2 10 3 9 C3 11.31 3 13.62 3 16 C3.99 15.34 4.98 14.68 6 14 C5.34 10.7 4.68 7.4 4 4 C1.525 3.505 1.525 3.505 -1 3 C-1 2.34 -1 1.68 -1 1 C-3.97 1 -6.94 1 -10 1 Z " fill="#DCB72C" transform="translate(52,32)"/>
<path d="M0 0 C0.33 0 0.66 0 1 0 C1 1.98 1 3.96 1 6 C-0.32 6.33 -1.64 6.66 -3 7 C-3 7.66 -3 8.32 -3 9 C-1.68 9.33 -0.36 9.66 1 10 C0.21572648 11.64936913 -0.57765259 13.29441127 -1.375 14.9375 C-1.81585938 15.85402344 -2.25671875 16.77054688 -2.7109375 17.71484375 C-4 20 -4 20 -6 21 C-5.28327285 16.5204553 -3.49622525 14.3683942 -1 10 C-7.93 10 -14.86 10 -22 10 C-22 10.66 -22 11.32 -22 12 C-26.1205746 13.99785435 -29.45194365 14.17835515 -34 14 C-34.33 13.34 -34.66 12.68 -35 12 C-33.948125 12.061875 -32.89625 12.12375 -31.8125 12.1875 C-28.08754603 12.32938181 -28.08754603 12.32938181 -25.78125 10.53125 C-22.06006735 8.48250899 -18.86553482 8.44419568 -14.6875 8.3125 C-12.150625 8.209375 -9.61375 8.10625 -7 8 C-17.56 8 -28.12 8 -39 8 C-39 8.66 -39 9.32 -39 10 C-39.66 10 -40.32 10 -41 10 C-41.33 8.68 -41.66 7.36 -42 6 C-38.61606992 4.30803496 -34.77522209 4.88013451 -31.0546875 4.90234375 C-29.72716965 4.90446617 -29.72716965 4.90446617 -28.37283325 4.90663147 C-25.54018809 4.9122386 -22.70762136 4.92479229 -19.875 4.9375 C-17.95703239 4.94251408 -16.03906354 4.94707715 -14.12109375 4.95117188 C-9.41403218 4.96221034 -4.7070294 4.97947975 0 5 C0 3.35 0 1.7 0 0 Z " fill="#1028A5" transform="translate(507,56)"/>
<path d="M0 0 C2.49560036 2.24460607 3.8705484 4.38520597 5.25 7.4375 C5.60578125 8.19933594 5.9615625 8.96117187 6.328125 9.74609375 C7.09427493 12.31625951 6.73491426 13.47911168 6 16 C1.74864784 16.00625462 -2.49930479 15.94674169 -6.75 15.875 C-8.55984375 15.87886719 -8.55984375 15.87886719 -10.40625 15.8828125 C-13.70920732 15.80941345 -16.76581345 15.67946539 -20 15 C-22.6875 12.09375 -22.6875 12.09375 -24 9 C-25.29682374 7.63113049 -26.61823134 6.2830709 -28 5 C-26.68 5 -25.36 5 -24 5 C-19 10.22727273 -19 10.22727273 -19 13 C-12.73 13 -6.46 13 0 13 C0.33 11.35 0.66 9.7 1 8 C1.33 7.34 1.66 6.68 2 6 C1.01 6.33 0.02 6.66 -1 7 C-0.67 4.69 -0.34 2.38 0 0 Z " fill="#0A34DA" transform="translate(82,22)"/>
<path d="M0 0 C0.99 0.495 0.99 0.495 2 1 C2.33 17.17 2.66 33.34 3 50 C3.66 49.34 4.32 48.68 5 48 C5.66 49.98 6.32 51.96 7 54 C6.34 54 5.68 54 5 54 C5.33 57.96 5.66 61.92 6 66 C4.68 66 3.36 66 2 66 C0.62203431 63.24406862 0.83701061 60.98220186 0.79467773 57.89794922 C0.77473251 56.61677216 0.75478729 55.33559509 0.73423767 54.01559448 C0.71725331 52.61196006 0.70037451 51.20832437 0.68359375 49.8046875 C0.6630246 48.37264403 0.64202814 46.94060663 0.62062073 45.50857544 C0.56539597 41.73733437 0.51598853 37.96603848 0.46777344 34.19470215 C0.41756133 30.34719964 0.36187376 26.49977687 0.30664062 22.65234375 C0.19905413 15.10163 0.09761029 7.55085 0 0 Z M3 60 C4 63 4 63 4 63 Z " fill="#0E2EBE" transform="translate(438,0)"/>
<path d="M0 0 C0 0.66 0 1.32 0 2 C4.4135435 5.38371669 9.72231121 6.55504054 15 8 C15 8.66 15 9.32 15 10 C16.77119803 9.85866501 18.54195287 9.71176792 20.3125 9.5625 C21.29863281 9.48128906 22.28476562 9.40007812 23.30078125 9.31640625 C26.09375599 9.08187441 26.09375599 9.08187441 29 8 C29.33 7.01 29.66 6.02 30 5 C30.350625 5.495 30.70125 5.99 31.0625 6.5 C33.94374289 8.73063966 36.47009026 8.19980621 40 8 C32.31934718 12.18305577 22.597733 13.33677206 14.12109375 11.3125 C6.45958104 8.96414361 -2.40797995 5.88803007 -7 -1 C-3.51418144 -2.2020064 -3.32007656 -2.21338437 0 0 Z " fill="#0C2DBB" transform="translate(22,77)"/>
<path d="M0 0 C0.75410156 0.00322266 1.50820313 0.00644531 2.28515625 0.00976562 C3.06246094 0.01814453 3.83976562 0.02652344 4.640625 0.03515625 C5.43339844 0.03966797 6.22617187 0.04417969 7.04296875 0.04882812 C8.99222008 0.0605706 10.94143238 0.07850479 12.890625 0.09765625 C12.890625 0.75765625 12.890625 1.41765625 12.890625 2.09765625 C13.880625 2.09765625 14.870625 2.09765625 15.890625 2.09765625 C19.16778036 4.97515852 20.92016418 7.15673461 22.890625 11.09765625 C33.780625 11.59265625 33.780625 11.59265625 44.890625 12.09765625 C44.395625 7.64265625 44.395625 7.64265625 43.890625 3.09765625 C46.18696324 6.54216362 46.43078985 9.03577908 46.890625 13.09765625 C42.89189377 13.36108618 38.89540686 13.5195201 34.890625 13.66015625 C33.76527344 13.73556641 32.63992188 13.81097656 31.48046875 13.88867188 C23.15760616 14.10769457 23.15760616 14.10769457 19.39624023 11.10913086 C17.26171875 8.66015625 17.26171875 8.66015625 15.47045898 6.19921875 C13.2616642 3.26098579 11.4958599 2.61268981 7.890625 2.09765625 C1.27067301 1.34285799 -3.5460197 2.38038047 -9.109375 6.09765625 C-11.53009712 8.1790228 -11.53009712 8.1790228 -13.109375 10.09765625 C-12.859375 8.22265625 -12.859375 8.22265625 -12.109375 6.09765625 C-10.046875 4.84765625 -10.046875 4.84765625 -8.109375 4.09765625 C-8.109375 3.10765625 -8.109375 2.11765625 -8.109375 1.09765625 C-5.33213575 0.3107718 -2.88327423 -0.02184299 0 0 Z " fill="#132DAB" transform="translate(260.109375,24.90234375)"/>
<path d="M0 0 C0.99 0.33 1.98 0.66 3 1 C2.67 5.29 2.34 9.58 2 14 C-13.89026523 14.55217138 -13.89026523 14.55217138 -20 11 C-20.66 10.67 -21.32 10.34 -22 10 C-22 9.34 -22 8.68 -22 8 C-19.03 8 -16.06 8 -13 8 C-13 8.99 -13 9.98 -13 11 C-11.68 10.67 -10.36 10.34 -9 10 C-9 9.34 -9 8.68 -9 8 C-7.35 8 -5.7 8 -4 8 C-4 9.65 -4 11.3 -4 13 C-2.68 13 -1.36 13 0 13 C0 8.71 0 4.42 0 0 Z " fill="#0A31C8" transform="translate(375,72)"/>
<path d="M0 0 C0 3.59760476 -0.89512296 4.2215623 -3 7 C-3.70514846 9.14733927 -3.70514846 9.14733927 -4 11 C-4.66 11 -5.32 11 -6 11 C-8.68351528 19.60513899 -9.97595272 28.07271721 -11 37 C-11.928125 35.83210938 -11.928125 35.83210938 -12.875 34.640625 C-16.96379589 29.30415961 -16.96379589 29.30415961 -23 27 C-23 25.68 -23 24.36 -23 23 C-24.32 23 -25.64 23 -27 23 C-27.33 21.35 -27.66 19.7 -28 18 C-14.52313883 27.95372233 -14.52313883 27.95372233 -13 31 C-12.90203125 30.40574219 -12.8040625 29.81148437 -12.703125 29.19921875 C-10.81912948 18.75603671 -7.73912199 7.73912199 0 0 Z " fill="#1430B5" transform="translate(231,16)"/>
<path d="M0 0 C-0.02618408 1.07483643 -0.05236816 2.14967285 -0.0793457 3.25708008 C-0.16981544 7.24319661 -0.22723645 11.22922242 -0.2746582 15.21606445 C-0.29981005 16.94180559 -0.33393619 18.66744012 -0.37719727 20.39282227 C-0.43782433 22.87282581 -0.46620101 25.35142222 -0.48828125 27.83203125 C-0.51408768 28.60400345 -0.5398941 29.37597565 -0.56648254 30.17134094 C-0.62393953 32.61003571 -0.62393953 32.61003571 0 36 C2.37766233 38.08596476 2.37766233 38.08596476 5 39 C4.67 39.66 4.34 40.32 4 41 C1.5625 40.625 1.5625 40.625 -1 40 C-2.50606515 36.98786971 -2.12160331 33.88717378 -2.09765625 30.5859375 C-2.0962413 29.85629791 -2.09482635 29.12665833 -2.09336853 28.37490845 C-2.08776531 26.04156415 -2.07521235 23.70831536 -2.0625 21.375 C-2.05748541 19.79427222 -2.05292243 18.21354293 -2.04882812 16.6328125 C-2.03779484 12.75517146 -2.02052811 8.87760193 -2 5 C-2.66 4.67 -3.32 4.34 -4 4 C-3.67 3.34 -3.34 2.68 -3 2 C-4.62490954 1.97301811 -6.24994633 1.95361243 -7.875 1.9375 C-8.77992188 1.92589844 -9.68484375 1.91429687 -10.6171875 1.90234375 C-13.0168585 1.83750743 -13.0168585 1.83750743 -15 3 C-15 2.34 -15 1.68 -15 1 C-17.64 1 -20.28 1 -23 1 C-23 0.67 -23 0.34 -23 0 C-15.0718254 -1.13259637 -7.96840453 -1.20530489 0 0 Z " fill="#0F2DAA" transform="translate(153,26)"/>
<path d="M0 0 C0.66 0 1.32 0 2 0 C3.32 5.28 4.64 10.56 6 16 C2.65094547 12.65094547 2.10529715 10.50621146 1 6 C0.34 6 -0.32 6 -1 6 C-1.185625 6.825 -1.37125 7.65 -1.5625 8.5 C-4.08487111 14.64142531 -8.63112337 19.18029262 -14 23 C-14.66 22.67 -15.32 22.34 -16 22 C-14.75 19.5 -14.75 19.5 -13 17 C-11.68 17 -10.36 17 -9 17 C-9 15.68 -9 14.36 -9 13 C-8.01 12.67 -7.02 12.34 -6 12 C-5.64587656 10.67203709 -5.31478446 9.33783393 -5 8 C-4 7 -3 6 -2 5 C-0.80972016 2.40084462 -0.80972016 2.40084462 0 0 Z " fill="#0D2DC5" transform="translate(304,58)"/>
<path d="M0 0 C0 0.33 0 0.66 0 1 C-0.58523438 0.9278125 -1.17046875 0.855625 -1.7734375 0.78125 C-7.91284661 0.1175301 -14.01728298 -0.13658012 -20.1875 -0.1875 C-20.93499512 -0.20039062 -21.68249023 -0.21328125 -22.45263672 -0.2265625 C-27.6278671 -0.23568788 -32.01887364 0.59287193 -37 2 C-38.66394675 2.34665557 -40.32943851 2.68676972 -42 3 C-39.63462345 0.23266404 -37.60798805 -0.66162033 -34.125 -1.625 C-33.28195313 -1.86476563 -32.43890625 -2.10453125 -31.5703125 -2.3515625 C-20.100404 -5.24518683 -11.12241059 -3.58994232 0 0 Z " fill="#112EBC" transform="translate(283,6)"/>
<path d="M0 0 C0 0.33 0 0.66 0 1 C-2.56211075 1.19569589 -5.12432391 1.38180612 -7.6875 1.5625 C-8.40873047 1.61857422 -9.12996094 1.67464844 -9.87304688 1.73242188 C-13.80477874 2.00171858 -17.16575461 1.84495408 -21 1 C-22.34136367 1.65035814 -23.67532254 2.3162955 -25 3 C-27.25 2.625 -27.25 2.625 -29 2 C-20.60422522 -3.95829178 -9.20926119 -4.6046306 0 0 Z " fill="#0735E4" transform="translate(416,26)"/>
<path d="M0 0 C0 0.33 0 0.66 0 1 C-0.94875 1.309375 -1.8975 1.61875 -2.875 1.9375 C-5.86080408 2.87394742 -5.86080408 2.87394742 -8 4 C-10 2.6875 -10 2.6875 -12 1 C-12 0.01 -12 -0.98 -12 -2 C-17.02222002 -1.46572127 -21.35146911 -0.29841606 -26.08203125 1.4765625 C-28 2 -28 2 -30 1 C-19.58263808 -4.55764966 -10.82253767 -5.41126883 0 0 Z " fill="#0E35D6" transform="translate(348,27)"/>
<path d="M0 0 C2 2 2 2 2.08203125 3.8125 C0.30511316 18.23386421 0.30511316 18.23386421 -4.1875 23.625 C-5.0846875 24.305625 -5.0846875 24.305625 -6 25 C-5.125 21.125 -5.125 21.125 -4 20 C-3.95919217 18.00041636 -3.95745644 15.99954746 -4 14 C-4.66 14 -5.32 14 -6 14 C-5.67 12.35 -5.34 10.7 -5 9 C-4.34 9 -3.68 9 -3 9 C-2.67 6.69 -2.34 4.38 -2 2 C-1.34 2 -0.68 2 0 2 C0 1.34 0 0.68 0 0 Z " fill="#0934E4" transform="translate(222,55)"/>
<path d="M0 0 C0.7425 0.763125 1.485 1.52625 2.25 2.3125 C7.84912766 7.78437476 11.84569679 9.3659198 19.62109375 9.2890625 C25.08193962 8.62551144 29.83730918 5.46890901 34 2 C32.4411666 5.82622743 30.04566418 8.25147379 27 11 C23.57767028 12.14077657 20.91326783 12.09815117 17.3125 12.0625 C15.54326172 12.04896484 15.54326172 12.04896484 13.73828125 12.03515625 C12.83464844 12.02355469 11.93101563 12.01195313 11 12 C11 11.34 11 10.68 11 10 C10.41734375 9.88269531 9.8346875 9.76539062 9.234375 9.64453125 C6.87265915 8.96326706 5.2669629 8.07954918 3.25 6.6875 C2.63640625 6.27886719 2.0228125 5.87023438 1.390625 5.44921875 C0 4 0 4 0 0 Z " fill="#1A37A3" transform="translate(28,55)"/>
<path d="M0 0 C0 0.66 0 1.32 0 2 C-1.90072266 1.98259766 -1.90072266 1.98259766 -3.83984375 1.96484375 C-5.53906101 1.95545581 -7.23827989 1.94635669 -8.9375 1.9375 C-9.76830078 1.92912109 -10.59910156 1.92074219 -11.45507812 1.91210938 C-21.04913403 1.59238065 -21.04913403 1.59238065 -30.11694336 4.06225586 C-32 5 -32 5 -34.25 4.625 C-34.8275 4.41875 -35.405 4.2125 -36 4 C-25.04239062 -2.18121555 -12.02534896 -3.15632804 0 0 Z " fill="#042BD6" transform="translate(58,4)"/>
<path d="M0 0 C0.33 0.99 0.66 1.98 1 3 C3.64 3 6.28 3 9 3 C9 3.99 9 4.98 9 6 C8.34 6 7.68 6 7 6 C7 5.34 7 4.68 7 4 C6.48050781 4.40992187 5.96101563 4.81984375 5.42578125 5.2421875 C4.72839844 5.78101562 4.03101563 6.31984375 3.3125 6.875 C2.62800781 7.40867187 1.94351562 7.94234375 1.23828125 8.4921875 C-5.12874653 12.78131965 -11.53990409 12.63159094 -19 12 C-21.64648967 11.2555403 -23.58560213 10.34757091 -26 9 C-25.34 8.67 -24.68 8.34 -24 8 C-23.195625 8.309375 -22.39125 8.61875 -21.5625 8.9375 C-15.2989217 10.80558476 -8.32810051 10.6948304 -2 9 C-0.5 7.25 -0.5 7.25 0 5 C-0.38932856 2.85744207 -0.38932856 2.85744207 -1 1 C-0.67 0.67 -0.34 0.34 0 0 Z " fill="#102CB5" transform="translate(415,76)"/>
<path d="M0 0 C1.2065625 0.0309375 1.2065625 0.0309375 2.4375 0.0625 C2.4375 0.7225 2.4375 1.3825 2.4375 2.0625 C4.9125 3.0525 4.9125 3.0525 7.4375 4.0625 C7.4375 4.7225 7.4375 5.3825 7.4375 6.0625 C4.03437262 5.00374926 1.42396769 4.05347846 -1.5625 2.0625 C-2.8928125 3.238125 -2.8928125 3.238125 -4.25 4.4375 C-8.77712682 8.43821672 -13.03009191 9.34062678 -19 9.3125 C-20.63775391 9.32023437 -20.63775391 9.32023437 -22.30859375 9.328125 C-25.67951578 9.05294769 -28.41125625 8.26025781 -31.5625 7.0625 C-31.5625 6.7325 -31.5625 6.4025 -31.5625 6.0625 C-29.2525 6.0625 -26.9425 6.0625 -24.5625 6.0625 C-24.5625 6.7225 -24.5625 7.3825 -24.5625 8.0625 C-22.83304347 7.92014543 -21.10394346 7.77345618 -19.375 7.625 C-18.41207031 7.54378906 -17.44914062 7.46257812 -16.45703125 7.37890625 C-13.77600398 7.08583849 -11.1962014 6.63546246 -8.5625 6.0625 C-8.5625 5.0725 -8.5625 4.0825 -8.5625 3.0625 C-7.758125 2.753125 -6.95375 2.44375 -6.125 2.125 C-1.0625 0.02591463 -1.0625 0.02591463 0 0 Z " fill="#0F2EB2" transform="translate(134.5625,78.9375)"/>
<path d="M0 0 C2.64 0.33 5.28 0.66 8 1 C8 2.65 8 4.3 8 6 C9.32 6 10.64 6 12 6 C14.22923777 10.32734391 13.92470553 13.28400182 13 18 C12.01 17.67 11.02 17.34 10 17 C10.66 17 11.32 17 12 17 C12.2032794 14.24617626 12.2032794 14.24617626 11 11 C8.20839296 8.36114127 5.16891971 6.16382801 2 4 C1.34 5.98 0.68 7.96 0 10 C-0.33 10 -0.66 10 -1 10 C-0.67 6.7 -0.34 3.4 0 0 Z " fill="#0B2AD0" transform="translate(186,48)"/>
<path d="M0 0 C1.02104551 0.97850195 2.0206121 1.97980427 3 3 C5.60611077 3.72197162 5.60611077 3.72197162 8 4 C5.35261084 5.4606285 4.10551666 6 1 6 C1 5.34 1 4.68 1 4 C-0.98 4 -2.96 4 -5 4 C-4.81584568 6.94091587 -4.81584568 6.94091587 -4 10 C-2.68 10.66 -1.36 11.32 0 12 C-2.97 11.67 -5.94 11.34 -9 11 C-8.39622642 3.63396226 -8.39622642 3.63396226 -6.75 1 C-4.31044362 -0.39403222 -2.76411292 -0.41461694 0 0 Z " fill="#EEC51F" transform="translate(42,38)"/>
<path d="M0 0 C5 5 5 5 5 8 C4.34 7.34 3.68 6.68 3 6 C2.67 9.63 2.34 13.26 2 17 C-0.72977064 17.08126109 -3.4571017 17.14061663 -6.1875 17.1875 C-6.95642578 17.21263672 -7.72535156 17.23777344 -8.51757812 17.26367188 C-13.2197028 17.32421425 -16.11834041 16.96375211 -20 14 C-17.27042281 12.6352114 -15.78258788 13.27688575 -12.8125 13.875 C-8.53447281 14.72462218 -4.33556972 15.3806329 0 16 C0 10.72 0 5.44 0 0 Z " fill="#0C2CB3" transform="translate(444,69)"/>
<path d="M0 0 C1.32 0 2.64 0 4 0 C5.28564453 1.71484375 5.28564453 1.71484375 6.5078125 3.9375 C8.43051669 6.68180025 9.37828204 7.82216885 12.63574219 8.75390625 C15.73857643 9.01001966 18.76235094 9.05749967 21.875 9 C23.47988281 9.01740234 23.47988281 9.01740234 25.1171875 9.03515625 C27.74674517 9.05863444 30.3708887 9.04584549 33 9 C32.505 5.535 32.505 5.535 32 2 C33.9451 4.91765 34.45276317 6.62537285 35 10 C30.78438844 12.10780578 25.24144411 11.05316814 20.625 10.9375 C19.47515625 10.93556641 18.3253125 10.93363281 17.140625 10.93164062 C13.98049522 10.84508695 11.08431337 10.69786022 8 10 C5.3515625 7.08984375 5.3515625 7.08984375 4 4 C2.70317626 2.63113049 1.38176866 1.2830709 0 0 Z " fill="#1532A2" transform="translate(54,27)"/>
<path d="M0 0 C0.66 0 1.32 0 2 0 C2.09796875 0.62648437 2.1959375 1.25296875 2.296875 1.8984375 C2.44640625 2.71570312 2.5959375 3.53296875 2.75 4.375 C2.88921875 5.18710937 3.0284375 5.99921875 3.171875 6.8359375 C3.81515578 9.1335112 3.81515578 9.1335112 5.86328125 10.26953125 C9.04520513 11.35731875 11.66260811 11.29275367 15 11 C17.87146994 9.63002843 17.87146994 9.63002843 20 8 C19.34 9.65 18.68 11.3 18 13 C13.38 13 8.76 13 4 13 C3.67 12.34 3.34 11.68 3 11 C1.35636866 10.27840576 -0.31050386 9.60648579 -2 9 C-1.34 8.01 -0.68 7.02 0 6 C0.16699232 2.87478167 0.16699232 2.87478167 0 0 Z " fill="#0E2EBA" transform="translate(396,54)"/>
<path d="M0 0 C1.89214361 2.9903808 2.22803321 5.24687078 2.125 8.75 C2.10695313 9.54921875 2.08890625 10.3484375 2.0703125 11.171875 C2.04710937 11.77515625 2.02390625 12.3784375 2 13 C1.67 13 1.34 13 1 13 C0.91363281 12.38511719 0.82726562 11.77023438 0.73828125 11.13671875 C-0.09048291 5.9483549 -0.09048291 5.9483549 -3.25 1.9375 C-8.37416171 0.19062669 -12.15070938 0.71798089 -17 3 C-16.67 2.01 -16.34 1.02 -16 0 C-15.34 0 -14.68 0 -14 0 C-14 -0.66 -14 -1.32 -14 -2 C-8.51319471 -3.30638221 -4.98697992 -2.49348996 0 0 Z " fill="#0B2EC3" transform="translate(347,46)"/>
<path d="M0 0 C0.66 0 1.32 0 2 0 C2.433125 0.474375 2.86625 0.94875 3.3125 1.4375 C5.44693733 3.41383086 7.16307947 3.61663236 10 4 C9.938125 5.0725 9.87625 6.145 9.8125 7.25 C10.00543309 11.10866187 10.39665076 12.28817788 13 15 C7.27042391 12.53905873 3.22073605 7.54762306 0.5625 2 C0.376875 1.34 0.19125 0.68 0 0 Z " fill="#0733CC" transform="translate(224,64)"/>
<path d="M0 0 C0.43570313 0.40992188 0.87140625 0.81984375 1.3203125 1.2421875 C6.15473915 5.61619256 9.82368922 7.82984049 16.5 8.1875 C19.74387942 8.01372075 22.81417351 7.62162468 26 7 C26 7.66 26 8.32 26 9 C21.3981914 11.37512702 17.04953866 11.99938786 12 11 C7.69173875 9.1099575 3.62470111 7.01751768 0 4 C0 2.68 0 1.36 0 0 Z " fill="#132EB6" transform="translate(247,56)"/>
<path d="M0 0 C9.27226865 2.99869114 17.35919007 7.87433167 23 16 C22.67 16.66 22.34 17.32 22 18 C20.0625 17.25 20.0625 17.25 18 16 C17.87625 15.360625 17.7525 14.72125 17.625 14.0625 C17.14137349 11.61559751 17.14137349 11.61559751 13.9375 10.25 C12.4834375 9.63125 12.4834375 9.63125 11 9 C11 8.34 11 7.68 11 7 C10.34 7 9.68 7 9 7 C9 6.34 9 5.68 9 5 C6.03 4.01 3.06 3.02 0 2 C0 1.34 0 0.68 0 0 Z " fill="#1033B3" transform="translate(59,4)"/>
<path d="M0 0 C2.07395649 5.91148143 -0.53955131 12.87568299 -3.09375 18.33984375 C-4.00343347 19.92854095 -4.99253827 21.47143738 -6 23 C-6.66 23 -7.32 23 -8 23 C-5.81659819 15.13620323 -3.00714974 7.58324716 0 0 Z " fill="#0F30C2" transform="translate(167,45)"/>
<path d="M0 0 C6.93 0 13.86 0 21 0 C19 6 19 6 16 8 C15.67 6.68 15.34 5.36 15 4 C15.66 3.67 16.32 3.34 17 3 C11.39 2.34 5.78 1.68 0 1 C0 0.67 0 0.34 0 0 Z " fill="#0A2FD2" transform="translate(485,66)"/>
<path d="M0 0 C2.9375 1.6875 2.9375 1.6875 3.875 3.875 C3.895625 4.473125 3.91625 5.07125 3.9375 5.6875 C-0.0625 3.6875 -0.0625 3.6875 -1.75 2.6875 C-4.89065118 1.32938057 -7.92532724 1.00157795 -11.3125 0.5625 C-12.57578125 0.39492188 -13.8390625 0.22734375 -15.140625 0.0546875 C-16.10484375 -0.06648438 -17.0690625 -0.18765625 -18.0625 -0.3125 C-12.45473125 -3.65137841 -5.89344635 -2.21613065 0 0 Z " fill="#0B2CCD" transform="translate(127.0625,25.3125)"/>
<path d="M0 0 C3 1 3 1 4 3 C6.31 3 8.62 3 11 3 C4.19018801 6.71728269 -3.37110317 7.28255173 -11 7 C-8.6870518 4.6870518 -7.52095125 4.50419025 -4.375 3.875 C-3.55773438 3.70742187 -2.74046875 3.53984375 -1.8984375 3.3671875 C-1.27195312 3.24601562 -0.64546875 3.12484375 0 3 C0 2.01 0 1.02 0 0 Z " fill="#0727CD" transform="translate(51,82)"/>
<path d="M0 0 C0.59732819 2.76264289 1 5.16032769 1 8 C-0.5 6.625 -0.5 6.625 -2 5 C-2 4.34 -2 3.68 -2 3 C-7.61 2.67 -13.22 2.34 -19 2 C-19 1.67 -19 1.34 -19 1 C-16.77100213 0.83109082 -14.54179338 0.66496313 -12.3125 0.5 C-10.45044922 0.36078125 -10.45044922 0.36078125 -8.55078125 0.21875 C-5.68500671 0.04220063 -2.86900043 -0.04388528 0 0 Z " fill="#0A30C5" transform="translate(60,24)"/>
<path d="M0 0 C0.66 0.33 1.32 0.66 2 1 C0.02 3.31 -1.96 5.62 -4 8 C2.27 8 8.54 8 15 8 C15 8.33 15 8.66 15 9 C4.605 9.495 4.605 9.495 -6 10 C-6 6 -6 6 -4.6875 4.296875 C-4.130625 3.78640625 -3.57375 3.2759375 -3 2.75 C-2.1646875 1.96882813 -2.1646875 1.96882813 -1.3125 1.171875 C-0.879375 0.78515625 -0.44625 0.3984375 0 0 Z " fill="#1933AB" transform="translate(99,28)"/>
<path d="M0 0 C0 1.32 0 2.64 0 4 C-0.66 3.67 -1.32 3.34 -2 3 C-1.67 2.34 -1.34 1.68 -1 1 C-2.62490954 0.97301811 -4.24994633 0.95361243 -5.875 0.9375 C-6.77992188 0.92589844 -7.68484375 0.91429687 -8.6171875 0.90234375 C-11.0168585 0.83750743 -11.0168585 0.83750743 -13 2 C-13 1.34 -13 0.68 -13 0 C-15.64 0 -18.28 0 -21 0 C-21 -0.33 -21 -0.66 -21 -1 C-6.22222222 -3.11111111 -6.22222222 -3.11111111 0 0 Z " fill="#0F3AC6" transform="translate(151,27)"/>
<path d="M0 0 C0 0.33 0 0.66 0 1 C-0.76183594 1.03738281 -1.52367187 1.07476563 -2.30859375 1.11328125 C-8.36445439 1.49886039 -13.60821151 2.220861 -19.2578125 4.4765625 C-21 5 -21 5 -23 4 C-14.7058221 -0.42493362 -9.33794692 -1.17857582 0 0 Z " fill="#0F2CC9" transform="translate(341,24)"/>
<path d="M0 0 C0.66 0 1.32 0 2 0 C2.58358276 4.78537861 1.69748757 7.87777806 -1.15625 11.65234375 C-4.89017892 14.38159265 -9.60957625 13.48440752 -14 13 C-14 12.67 -14 12.34 -14 12 C-13.31292969 11.92523438 -12.62585938 11.85046875 -11.91796875 11.7734375 C-9.16044719 11.37105238 -6.63878998 10.90229593 -4 10 C-1.73434315 6.84181167 -0.7299313 3.79564276 0 0 Z " fill="#132FC0" transform="translate(130,54)"/>
<path d="M0 0 C0.33 0 0.66 0 1 0 C1.36504603 1.58086048 1.71660506 3.16483907 2.0625 4.75 C2.25972656 5.63171875 2.45695312 6.5134375 2.66015625 7.421875 C2.99825872 9.98679028 2.81158635 11.57091639 2 14 C1.01 11.69 0.02 9.38 -1 7 C-2.485 9.475 -2.485 9.475 -4 12 C-5.43088528 9.13822943 -4.59991697 7.06624227 -4 4 C-3.01 3.67 -2.02 3.34 -1 3 C-0.67 2.01 -0.34 1.02 0 0 Z " fill="#0F2DBF" transform="translate(87,57)"/>
<path d="M0 0 C0.66 0.33 1.32 0.66 2 1 C1.01 2.485 1.01 2.485 0 4 C-0.66 4 -1.32 4 -2 4 C-2.33 4.99 -2.66 5.98 -3 7 C-3.99 7.495 -3.99 7.495 -5 8 C-5.65213292 10.02463255 -5.65213292 10.02463255 -6 12 C-7.65 12.33 -9.3 12.66 -11 13 C-8.72126867 7.61390776 -4.84467788 3.22978525 0 0 Z " fill="#1230B5" transform="translate(20,9)"/>
<path d="M0 0 C6.875 2.75 6.875 2.75 8 5 C7.67 5.66 7.34 6.32 7 7 C8.32 7.33 9.64 7.66 11 8 C10.67 8.66 10.34 9.32 10 10 C4.98343041 8.5666944 2.98547118 6.09436048 0 2 C0 1.34 0 0.68 0 0 Z " fill="#0A2FC6" transform="translate(310,74)"/>
<path d="M0 0 C0 3.99476331 -1.28869085 5.1421336 -4 8 C-8.00690207 10.06694068 -11.34417674 10.21526916 -15.8125 10.125 C-16.97394531 10.10695313 -18.13539062 10.08890625 -19.33203125 10.0703125 C-20.21246094 10.04710938 -21.09289063 10.02390625 -22 10 C-22 9.67 -22 9.34 -22 9 C-17.38 8.67 -12.76 8.34 -8 8 C-8 7.34 -8 6.68 -8 6 C-6.02678947 4.6273318 -4.02456848 3.29572383 -2 2 C-1.34 1.34 -0.68 0.68 0 0 Z " fill="#1333BC" transform="translate(61,57)"/>
<path d="M0 0 C0.66 0.33 1.32 0.66 2 1 C1.54625 1.37125 1.0925 1.7425 0.625 2.125 C-1.237302 4.01482823 -1.237302 4.01482823 -1.9375 7.125 C-2.288125 8.07375 -2.63875 9.0225 -3 10 C-5.125 10.875 -5.125 10.875 -7 11 C-7 12.32 -7 13.64 -7 15 C-7.66 15 -8.32 15 -9 15 C-8.46512323 10.81013196 -7.1610304 8.49994696 -4.5 5.25 C-3.55640625 4.08210938 -3.55640625 4.08210938 -2.59375 2.890625 C-1.75936615 1.9008167 -0.9154007 0.9154007 0 0 Z " fill="#1331BB" transform="translate(316,29)"/>
<path d="M0 0 C0.33 0.99 0.66 1.98 1 3 C3.64 3 6.28 3 9 3 C9 3.99 9 4.98 9 6 C8.34 6 7.68 6 7 6 C7 5.34 7 4.68 7 4 C6.236875 4.66 5.47375 5.32 4.6875 6 C2 8 2 8 -1 8 C-1 4.88742431 -0.82638376 2.89234315 0 0 Z " fill="#0C31CC" transform="translate(415,76)"/>
<path d="M0 0 C1.05916608 2.72173587 1.05253196 3.84927538 0.07421875 6.65625 C-0.61220703 8.06390625 -0.61220703 8.06390625 -1.3125 9.5 C-1.76238281 10.4384375 -2.21226563 11.376875 -2.67578125 12.34375 C-3.11277344 13.2203125 -3.54976563 14.096875 -4 15 C-4.38542969 15.7734375 -4.77085938 16.546875 -5.16796875 17.34375 C-5.44253906 17.8903125 -5.71710937 18.436875 -6 19 C-5.64134677 11.58783319 -3.64079463 6.43520528 0 0 Z " fill="#1630B7" transform="translate(8,22)"/>
<path d="M0 0 C-3.03188958 2.02125972 -3.97943425 2.26674093 -7.4375 2.5 C-10.82444947 2.72923516 -12.99193749 3.46747131 -16 5 C-18.25 4.625 -18.25 4.625 -20 4 C-13.93858611 0.58074088 -6.92255775 -2.23308315 0 0 Z " fill="#132EB7" transform="translate(42,4)"/>
<path d="M0 0 C1.125 3.75 1.125 3.75 0 6 C-3.06698637 7.02232879 -5.28664878 7.1659049 -8.5 7.1875 C-9.93859375 7.20876953 -9.93859375 7.20876953 -11.40625 7.23046875 C-14 7 -14 7 -17 5 C-16.67 4.34 -16.34 3.68 -16 3 C-15.2265625 3.495 -15.2265625 3.495 -14.4375 4 C-11.03878205 5.39434583 -8.64405552 5.44751559 -5 5 C-2.06026719 2.64581624 -2.06026719 2.64581624 0 0 Z " fill="#1433B3" transform="translate(347,60)"/>
<path d="M0 0 C7.52506596 1.33509235 7.52506596 1.33509235 9.5625 4.1875 C10.10292519 7.66166195 9.67353334 10.56497999 9 14 C8.01 13.67 7.02 13.34 6 13 C6.66 13 7.32 13 8 13 C7.92329711 9.77847864 7.64578262 7.6752775 5.375 5.30078125 C4.10280266 4.24147177 2.80993782 3.20641108 1.49609375 2.19921875 C1.00238281 1.80347656 0.50867188 1.40773437 0 1 C0 0.67 0 0.34 0 0 Z " fill="#122EB1" transform="translate(190,52)"/>
<path d="M0 0 C1.01958365 3.05875096 0.97318142 4.17432075 0.5 7.25 C-0.04092633 11.43362006 0.20880666 14.86821258 1 19 C0.01 18.67 -0.98 18.34 -2 18 C-2.054138 15.75026553 -2.09285491 13.50015617 -2.125 11.25 C-2.14820312 9.99703125 -2.17140625 8.7440625 -2.1953125 7.453125 C-2.01537302 4.27179508 -1.68998582 2.63478104 0 0 Z " fill="#0E2CA1" transform="translate(27,36)"/>
<path d="M0 0 C7.26 0 14.52 0 22 0 C18.58248293 2.27834471 16.73509565 2.43254152 12.6875 2.75 C11.57761719 2.84796875 10.46773438 2.9459375 9.32421875 3.046875 C5.81485806 2.9973893 3.24920122 2.27805192 0 1 C0 0.67 0 0.34 0 0 Z " fill="#082BB3" transform="translate(464,86)"/>
<path d="M0 0 C1.32 0.33 2.64 0.66 4 1 C-5.22551253 8.85193622 -5.22551253 8.85193622 -11 9 C-10.01 8.67 -9.02 8.34 -8 8 C-8 7.34 -8 6.68 -8 6 C-5.36095629 4.58622659 -2.92879371 3.62759865 0 3 C0 2.01 0 1.02 0 0 Z " fill="#0E2CB9" transform="translate(497,77)"/>
<path d="M0 0 C1.55246815 4.65740446 -0.19525684 8.55363681 -2 13 C-4.1875 15.625 -4.1875 15.625 -6 17 C-5.125 13.125 -5.125 13.125 -4 12 C-3.76924918 10.65252916 -3.58846937 9.29622435 -3.4375 7.9375 C-3.2209375 5.9884375 -3.2209375 5.9884375 -3 4 C-2.34 4 -1.68 4 -1 4 C-0.67 2.68 -0.34 1.36 0 0 Z " fill="#0F31B2" transform="translate(222,63)"/>
<path d="M0 0 C0.66 0 1.32 0 2 0 C3.04976964 3.14930893 3.10131595 5.38814456 3.0625 8.6875 C3.05347656 9.68136719 3.04445313 10.67523438 3.03515625 11.69921875 C3.02355469 12.45847656 3.01195312 13.21773437 3 14 C2.01 14 1.02 14 0 14 C0 9.38 0 4.76 0 0 Z " fill="#052CC7" transform="translate(439,50)"/>
<path d="M0 0 C2.64 0.33 5.28 0.66 8 1 C8.12375 1.928125 8.2475 2.85625 8.375 3.8125 C8.81533082 7.13925235 8.81533082 7.13925235 11 10 C6.78801228 8.44000455 4.72928177 5.44751381 2 2 C1.34 1.34 0.68 0.68 0 0 Z " fill="#0E30BB" transform="translate(115,37)"/>
<path d="M0 0 C1.32 0.33 2.64 0.66 4 1 C4 4.63 4 8.26 4 12 C3.01 12.33 2.02 12.66 1 13 C1.01160156 12.31292969 1.02320313 11.62585937 1.03515625 10.91796875 C1.04417969 10.01691406 1.05320312 9.11585937 1.0625 8.1875 C1.07410156 7.29417969 1.08570313 6.40085937 1.09765625 5.48046875 C1.11009967 2.86586209 1.11009967 2.86586209 0 0 Z " fill="#1231BB" transform="translate(415,49)"/>
<path d="M0 0 C4.99275057 1.27721526 7.57611908 3.17330957 11 7 C9.35 7 7.7 7 6 7 C6 6.34 6 5.68 6 5 C5.34 5 4.68 5 4 5 C3.67 5.66 3.34 6.32 3 7 C2.01 4.69 1.02 2.38 0 0 Z " fill="#0F33C1" transform="translate(283,7)"/>
<path d="M0 0 C0.33 0 0.66 0 1 0 C2.51708428 12.66970387 2.51708428 12.66970387 0 18 C-2.56824006 14.14763991 -1.82735049 11.63558834 -1.125 7.3125 C-1.02058594 6.61060547 -0.91617188 5.90871094 -0.80859375 5.18554688 C-0.54966196 3.45541171 -0.27622343 1.72745882 0 0 Z " fill="#0D32D8" transform="translate(221,38)"/>
<path d="M0 0 C2.97 0.495 2.97 0.495 6 1 C3.3401439 4.44216672 0.09711714 4.99504674 -4 6 C-4 5.34 -4 4.68 -4 4 C-3.01 4 -2.02 4 -1 4 C-0.67 2.68 -0.34 1.36 0 0 Z " fill="#0B30C4" transform="translate(342,82)"/>
<path d="M0 0 C-0.58523437 0.268125 -1.17046875 0.53625 -1.7734375 0.8125 C-4.0186552 2.00994944 -5.72009636 3.3216708 -7.625 5 C-8.21539062 5.515625 -8.80578125 6.03125 -9.4140625 6.5625 C-10.64090196 7.67451212 -11.82916568 8.82916568 -13 10 C-13 8.35 -13 6.7 -13 5 C-12.01 5 -11.02 5 -10 5 C-10 4.34 -10 3.68 -10 3 C-6.58168085 0.4606772 -4.24223102 -0.3636198 0 0 Z " fill="#10289D" transform="translate(41,26)"/>
<path d="M0 0 C0.66 0 1.32 0 2 0 C4.00293347 3.00440021 4.49271626 4.70993945 5.125 8.1875 C5.29257812 9.08855469 5.46015625 9.98960938 5.6328125 10.91796875 C5.75398438 11.60503906 5.87515625 12.29210937 6 13 C3.12744934 10.57804552 2.29161081 8.40257297 1.3125 4.8125 C1.06113281 3.91144531 0.80976563 3.01039062 0.55078125 2.08203125 C0.36902344 1.39496094 0.18726563 0.70789062 0 0 Z " fill="#1335BE" transform="translate(304,61)"/>
<path d="M0 0 C0.33 0 0.66 0 1 0 C1.061875 1.258125 1.12375 2.51625 1.1875 3.8125 C1.38520288 6.00337977 1.38520288 6.00337977 2 8 C4.40743101 10.06454002 4.40743101 10.06454002 7 11 C6.67 11.66 6.34 12.32 6 13 C3.5625 12.625 3.5625 12.625 1 12 C-0.26237731 9.47524538 -0.09856404 7.68799534 -0.0625 4.875 C-0.05347656 3.96492188 -0.04445312 3.05484375 -0.03515625 2.1171875 C-0.02355469 1.41851562 -0.01195312 0.71984375 0 0 Z " fill="#102EBC" transform="translate(151,54)"/>
<path d="M0 0 C-0.83144531 0.27263672 -0.83144531 0.27263672 -1.6796875 0.55078125 C-2.40414063 0.80214844 -3.12859375 1.05351562 -3.875 1.3125 C-4.59429687 1.55613281 -5.31359375 1.79976562 -6.0546875 2.05078125 C-8.33994905 2.96335547 -8.33994905 2.96335547 -10 6 C-11.32 5.67 -12.64 5.34 -14 5 C-9.43149396 1.08413768 -6.03922093 -1.77473934 0 0 Z " fill="#1330BA" transform="translate(467,26)"/>
<path d="M0 0 C1.98 0 3.96 0 6 0 C7.78409802 3.06246747 8.22880021 5.22079273 8.125 8.75 C8.10695313 9.54921875 8.08890625 10.3484375 8.0703125 11.171875 C8.03550781 12.07679687 8.03550781 12.07679687 8 13 C7.67 13 7.34 13 7 13 C6.91363281 12.39671875 6.82726562 11.7934375 6.73828125 11.171875 C5.78960711 5.71717733 5.78960711 5.71717733 2.375 1.4375 C1.59125 0.963125 0.8075 0.48875 0 0 Z " fill="#1430B3" transform="translate(341,46)"/>
<path d="M0 0 C4.61513112 1.31860889 8.09897612 3.21355437 12 6 C9 7 9 7 6.375 6.1875 C4 5 4 5 3 3 C2.01 2.67 1.02 2.34 0 2 C0 1.34 0 0.68 0 0 Z " fill="#1232B7" transform="translate(487,26)"/>
<path d="M0 0 C1.65 0 3.3 0 5 0 C5 0.66 5 1.32 5 2 C7.475 2.99 7.475 2.99 10 4 C10 4.66 10 5.32 10 6 C5.56909529 4.79157144 3.01887244 3.48331435 0 0 Z " fill="#0F2EC3" transform="translate(132,79)"/>
<path d="M0 0 C0 0.99 0 1.98 0 3 C-2.375 2.6875 -2.375 2.6875 -5 2 C-5.66 1.01 -6.32 0.02 -7 -1 C-3.51418144 -2.2020064 -3.32007656 -2.21338437 0 0 Z " fill="#0E2EC9" transform="translate(22,77)"/>
<path d="M0 0 C2 2 2 2 2.125 5.125 C2.08375 6.07375 2.0425 7.0225 2 8 C1.34 8 0.68 8 0 8 C-0.33 8.66 -0.66 9.32 -1 10 C-1.125 3.375 -1.125 3.375 0 0 Z " fill="#0A2AD5" transform="translate(222,55)"/>
<path d="M0 0 C0.66 1.32 1.32 2.64 2 4 C-1.63 4.33 -5.26 4.66 -9 5 C-9 4.01 -9 3.02 -9 2 C-6.03 2.33 -3.06 2.66 0 3 C0 2.01 0 1.02 0 0 Z " fill="#0625D2" transform="translate(483,46)"/>
<path d="M0 0 C1.32 0 2.64 0 4 0 C4 0.66 4 1.32 4 2 C2.5390625 3.21875 2.5390625 3.21875 0.625 4.5 C-1.48267274 5.92246226 -3.19154973 7.19154973 -5 9 C-4.75 7.125 -4.75 7.125 -4 5 C-1.9375 3.75 -1.9375 3.75 0 3 C0 2.01 0 1.02 0 0 Z " fill="#152CBC" transform="translate(252,26)"/>
<path d="M0 0 C5.53846154 0.49230769 5.53846154 0.49230769 7.875 3.0625 C8.431875 4.0215625 8.431875 4.0215625 9 5 C5.26512223 4.5020163 3.18762365 4.12508244 0 2 C0 1.34 0 0.68 0 0 Z " fill="#0F2EBB" transform="translate(353,80)"/>
<path d="M0 0 C3.63 0.66 7.26 1.32 11 2 C11 2.33 11 2.66 11 3 C6.545 3.495 6.545 3.495 2 4 C1.34 2.68 0.68 1.36 0 0 Z " fill="#0930DA" transform="translate(112,65)"/>
<path d="M0 0 C-0.33 2.97 -0.66 5.94 -1 9 C-2.32 7.35 -3.64 5.7 -5 4 C-1.125 0 -1.125 0 0 0 Z " fill="#082BC1" transform="translate(221,44)"/>
<path d="M0 0 C0.66 0 1.32 0 2 0 C4.1875 2.25 4.1875 2.25 6 5 C5.61328125 7.171875 5.61328125 7.171875 5 9 C4.16396622 7.68921847 3.3312426 6.37632511 2.5 5.0625 C2.0359375 4.33160156 1.571875 3.60070312 1.09375 2.84765625 C0 1 0 1 0 0 Z " fill="#1531B6" transform="translate(224,64)"/>
<path d="M0 0 C2.50037734 2.17424117 3.43628586 3.73045798 4 7 C2.35 7 0.7 7 -1 7 C-0.67 4.69 -0.34 2.38 0 0 Z " fill="#0D33C4" transform="translate(82,22)"/>
<path d="M0 0 C6.625 0.75 6.625 0.75 10 3 C3.47692308 3.36923077 3.47692308 3.36923077 1.0625 1.5 C0.5365625 0.7575 0.5365625 0.7575 0 0 Z " fill="#122DB3" transform="translate(406,24)"/>
<path d="M0 0 C0.556875 0.226875 1.11375 0.45375 1.6875 0.6875 C-2.74326923 3.76442308 -2.74326923 3.76442308 -5.625 3.375 C-6.4603125 3.0346875 -6.4603125 3.0346875 -7.3125 2.6875 C-2.88173077 -0.38942308 -2.88173077 -0.38942308 0 0 Z " fill="#1737B7" transform="translate(394.3125,25.3125)"/>
<path d="M0 0 C0 0.33 0 0.66 0 1 C-6.625 2 -6.625 2 -10 2 C-10 1.34 -10 0.68 -10 0 C-6.30458414 -0.95024979 -3.69541586 -0.95024979 0 0 Z " fill="#0626CB" transform="translate(406,24)"/>
<path d="M0 0 C0.66 0.33 1.32 0.66 2 1 C1.67 2.32 1.34 3.64 1 5 C-0.65 5.33 -2.3 5.66 -4 6 C-2.84826645 3.53199953 -1.95216435 1.95216435 0 0 Z " fill="#0E33C1" transform="translate(13,16)"/>
<path d="M0 0 C6.75 -0.125 6.75 -0.125 9 1 C9 1.66 9 2.32 9 3 C4.545 2.01 4.545 2.01 0 1 C0 0.67 0 0.34 0 0 Z " fill="#0D2BBD" transform="translate(49,3)"/>
</svg>
